<mxfile host="Electron" agent="Mozilla/5.0 (Macintosh; Intel Mac OS X 10_15_7) AppleWebKit/537.36 (KHTML, like Gecko) draw.io/28.2.5 Chrome/138.0.7204.251 Electron/37.6.1 Safari/537.36" version="28.2.5">
  <diagram name="Page-1" id="-H_mtQnk-PTXWXPvYvuk">
    <mxGraphModel dx="1151" dy="866" grid="1" gridSize="10" guides="1" tooltips="1" connect="1" arrows="1" fold="1" page="1" pageScale="1" pageWidth="1169" pageHeight="827" math="0" shadow="0">
      <root>
        <mxCell id="0" />
        <mxCell id="1" parent="0" />
        <mxCell id="YbwGt4lME48bDANCcB6B-2" value="" style="rounded=1;whiteSpace=wrap;html=1;dashed=1;dashPattern=8 8;fillColor=none;" parent="1" vertex="1">
          <mxGeometry x="470" y="40" width="280" height="230" as="geometry" />
        </mxCell>
        <mxCell id="YbwGt4lME48bDANCcB6B-1" value="" style="rounded=1;whiteSpace=wrap;html=1;dashed=1;dashPattern=8 8;fillColor=none;" parent="1" vertex="1">
          <mxGeometry x="442.5" y="20" width="335" height="460" as="geometry" />
        </mxCell>
        <mxCell id="pymongo-api" value="pymongo-api" style="rounded=1;whiteSpace=wrap;html=1;" parent="1" vertex="1">
          <mxGeometry x="240" y="205" width="120" height="60" as="geometry" />
        </mxCell>
        <mxCell id="mongos" value="mongos Router" style="rhombus;whiteSpace=wrap;html=1;" parent="1" vertex="1">
          <mxGeometry x="530" y="290" width="160" height="170" as="geometry" />
        </mxCell>
        <mxCell id="config-servers" value="Config Server" style="shape=cylinder3;whiteSpace=wrap;html=1;boundedLbl=1;backgroundOutline=1;size=15;fillColor=#60a917;strokeColor=#2D7600;fontColor=#ffffff;" parent="1" vertex="1">
          <mxGeometry x="535" y="170" width="150" height="70" as="geometry" />
        </mxCell>
        <mxCell id="shard-key" value="Ключ шардирования:&lt;br&gt;{ sale: 1 }&lt;br&gt;&lt;br&gt;Правила распределения:&lt;br&gt;• sale: false → Shard 1&lt;br&gt;• sale: true → Shard 2" style="rounded=1;whiteSpace=wrap;html=1;fillColor=#e1d5e7;strokeColor=#9673a6;fontColor=#000000;" parent="1" vertex="1">
          <mxGeometry x="503" y="55" width="210" height="100" as="geometry" />
        </mxCell>
        <mxCell id="shard1-label" value="Shard 1 - Replica Set&lt;br&gt;Обычные товары (sale: false)" style="text;html=1;strokeColor=none;fillColor=none;align=center;verticalAlign=middle;whiteSpace=wrap;rounded=0;" parent="1" vertex="1">
          <mxGeometry x="190" y="389" width="240" height="30" as="geometry" />
        </mxCell>
        <mxCell id="shard1-primary" value="PRIMARY" style="shape=cylinder3;whiteSpace=wrap;html=1;boundedLbl=1;backgroundOutline=1;size=15;fillColor=#f8cecc;strokeColor=#b85450;fontColor=#000000;" parent="1" vertex="1">
          <mxGeometry x="156" y="463" width="124" height="60" as="geometry" />
        </mxCell>
        <mxCell id="shard1-secondary1" value="SECONDARY 1" style="shape=cylinder3;whiteSpace=wrap;html=1;boundedLbl=1;backgroundOutline=1;size=15;fillColor=#f8cecc;strokeColor=#b85450;fontColor=#666666;" parent="1" vertex="1">
          <mxGeometry x="40" y="543" width="120" height="60" as="geometry" />
        </mxCell>
        <mxCell id="shard1-secondary2" value="SECONDARY 2" style="shape=cylinder3;whiteSpace=wrap;html=1;boundedLbl=1;backgroundOutline=1;size=15;fillColor=#f8cecc;strokeColor=#b85450;fontColor=#666666;" parent="1" vertex="1">
          <mxGeometry x="280" y="540" width="120" height="60" as="geometry" />
        </mxCell>
        <mxCell id="shard2-label" value="Shard 2 - Replica Set&lt;br&gt;РАСПРОДАЖА (sale: true)" style="text;html=1;strokeColor=none;fillColor=none;align=center;verticalAlign=middle;whiteSpace=wrap;rounded=0;" parent="1" vertex="1">
          <mxGeometry x="840" y="389" width="240" height="30" as="geometry" />
        </mxCell>
        <mxCell id="repl1-1" style="edgeStyle=orthogonalEdgeStyle;rounded=0;orthogonalLoop=1;jettySize=auto;html=1;exitX=0;exitY=0.5;exitDx=0;exitDy=0;dashed=1;exitPerimeter=0;entryX=0.5;entryY=0;entryDx=0;entryDy=0;entryPerimeter=0;" parent="1" source="shard1-primary" target="shard1-secondary1" edge="1">
          <mxGeometry relative="1" as="geometry">
            <mxPoint x="85" y="533" as="targetPoint" />
          </mxGeometry>
        </mxCell>
        <mxCell id="repl1-2" style="edgeStyle=orthogonalEdgeStyle;rounded=0;orthogonalLoop=1;jettySize=auto;html=1;exitX=1;exitY=0.5;exitDx=0;exitDy=0;entryX=0.5;entryY=0;entryDx=0;entryDy=0;dashed=1;entryPerimeter=0;" parent="1" source="shard1-primary" target="shard1-secondary2" edge="1">
          <mxGeometry relative="1" as="geometry" />
        </mxCell>
        <mxCell id="conn1" style="edgeStyle=orthogonalEdgeStyle;rounded=0;orthogonalLoop=1;jettySize=auto;html=1;exitX=0.5;exitY=1;exitDx=0;exitDy=0;entryX=0;entryY=0.5;entryDx=0;entryDy=0;" parent="1" source="pymongo-api" target="mongos" edge="1">
          <mxGeometry relative="1" as="geometry">
            <Array as="points">
              <mxPoint x="300" y="265" />
              <mxPoint x="300" y="360" />
            </Array>
          </mxGeometry>
        </mxCell>
        <mxCell id="conn2" style="edgeStyle=orthogonalEdgeStyle;rounded=0;orthogonalLoop=1;jettySize=auto;html=1;exitX=0.5;exitY=0;exitDx=0;exitDy=0;entryX=0.5;entryY=1;entryDx=0;entryDy=0;" parent="1" source="mongos" target="config-servers" edge="1">
          <mxGeometry relative="1" as="geometry" />
        </mxCell>
        <mxCell id="conn3" style="edgeStyle=orthogonalEdgeStyle;rounded=0;orthogonalLoop=1;jettySize=auto;html=1;exitX=0.25;exitY=1;exitDx=0;exitDy=0;entryX=0.5;entryY=0;entryDx=0;entryDy=0;" parent="1" source="mongos" target="shard1-primary" edge="1">
          <mxGeometry relative="1" as="geometry" />
        </mxCell>
        <mxCell id="conn4" style="edgeStyle=orthogonalEdgeStyle;rounded=0;orthogonalLoop=1;jettySize=auto;html=1;exitX=0.75;exitY=1;exitDx=0;exitDy=0;entryX=0.5;entryY=0;entryDx=0;entryDy=0;entryPerimeter=0;" parent="1" source="mongos" target="HkTjVLViw5EhlDMIaWv9-2" edge="1">
          <mxGeometry relative="1" as="geometry">
            <mxPoint x="835" y="420" as="targetPoint" />
          </mxGeometry>
        </mxCell>
        <mxCell id="HkTjVLViw5EhlDMIaWv9-2" value="PRIMARY" style="shape=cylinder3;whiteSpace=wrap;html=1;boundedLbl=1;backgroundOutline=1;size=15;fillColor=#FFE599;strokeColor=#b85450;fontColor=#000000;" vertex="1" parent="1">
          <mxGeometry x="937" y="460" width="124" height="60" as="geometry" />
        </mxCell>
        <mxCell id="HkTjVLViw5EhlDMIaWv9-3" value="SECONDARY 1" style="shape=cylinder3;whiteSpace=wrap;html=1;boundedLbl=1;backgroundOutline=1;size=15;fillColor=#FFE599;strokeColor=#b85450;fontColor=#666666;" vertex="1" parent="1">
          <mxGeometry x="821" y="540" width="120" height="60" as="geometry" />
        </mxCell>
        <mxCell id="HkTjVLViw5EhlDMIaWv9-4" value="SECONDARY 2" style="shape=cylinder3;whiteSpace=wrap;html=1;boundedLbl=1;backgroundOutline=1;size=15;fillColor=#FFE599;strokeColor=#b85450;fontColor=#666666;" vertex="1" parent="1">
          <mxGeometry x="1061" y="537" width="120" height="60" as="geometry" />
        </mxCell>
        <mxCell id="HkTjVLViw5EhlDMIaWv9-5" style="edgeStyle=orthogonalEdgeStyle;rounded=0;orthogonalLoop=1;jettySize=auto;html=1;exitX=0;exitY=0.5;exitDx=0;exitDy=0;dashed=1;exitPerimeter=0;entryX=0.5;entryY=0;entryDx=0;entryDy=0;entryPerimeter=0;" edge="1" parent="1" source="HkTjVLViw5EhlDMIaWv9-2" target="HkTjVLViw5EhlDMIaWv9-3">
          <mxGeometry relative="1" as="geometry">
            <mxPoint x="866" y="530" as="targetPoint" />
          </mxGeometry>
        </mxCell>
        <mxCell id="HkTjVLViw5EhlDMIaWv9-6" style="edgeStyle=orthogonalEdgeStyle;rounded=0;orthogonalLoop=1;jettySize=auto;html=1;exitX=1;exitY=0.5;exitDx=0;exitDy=0;entryX=0.5;entryY=0;entryDx=0;entryDy=0;dashed=1;entryPerimeter=0;" edge="1" parent="1" source="HkTjVLViw5EhlDMIaWv9-2" target="HkTjVLViw5EhlDMIaWv9-4">
          <mxGeometry relative="1" as="geometry" />
        </mxCell>
        <mxCell id="HkTjVLViw5EhlDMIaWv9-7" value="" style="rounded=1;whiteSpace=wrap;html=1;dashed=1;dashPattern=8 8;fillColor=none;" vertex="1" parent="1">
          <mxGeometry x="23" y="450" width="400" height="170" as="geometry" />
        </mxCell>
        <mxCell id="HkTjVLViw5EhlDMIaWv9-8" value="" style="rounded=1;whiteSpace=wrap;html=1;dashed=1;dashPattern=8 8;fillColor=none;" vertex="1" parent="1">
          <mxGeometry x="799" y="448" width="400" height="170" as="geometry" />
        </mxCell>
      </root>
    </mxGraphModel>
  </diagram>
</mxfile>
